<svg id="Layer_1" data-name="Layer 1" xmlns="http://www.w3.org/2000/svg" viewBox="0 0 566.92913 566.92913"><defs><style>.cls-1{fill:none;stroke:#000;stroke-miterlimit:10;}.cls-2{fill:#fff;}</style></defs><path class="cls-1" d="M336.9698,260.726l-.338.338"/><path class="cls-2" d="M325.968,98.92722c-21.39041,12.05519-59.27817,33.25246-67.26135,36.68072-11.26655,4.82852-35.40915,20.92359-37.01866,46.6757,0,0-2.55906,29.09981,23.77245,57.47542.96566,1.04622,1.97966,2.07633,1.97966,2.07633.62773.64374,1.175,1.191,1.60951,1.6095q33.003,29.76772,65.98977,59.55175s41.84718,37.01866,41.84718,78.86583-37.01866,59.55175-37.01866,59.55175l-99.4675,53.56434a6.59967,6.59967,0,0,1-8.69127-2.26936c-7.54859-11.81383-23.54709-43.52113-10.94473-85.09462,13.536-44.696,59.00458-67.72807,73.07165-73.90862a6.57245,6.57245,0,0,1,7.30712,1.38425l.09657.09657c8.36946,6.51848,34.97465,28.74577,32.19014,54.72323-1.80264,16.8676-16.75493,30.01724-46.6757,56.33273-9.22244,8.11188-17.67235,14.87183-24.75422,20.23142L284.07248,443.233a6.69584,6.69584,0,0,1,.77263-.35414c5.424-2.15678,66.79453-27.45818,57.55588-67.45438-9.657-41.84718-48.28521-74.03731-86.91337-104.61794s-48.2852-72.42781-48.2852-72.42781-11.26655-45.06618,28.97112-67.59928c34.15379-19.12095,89.19894-49.86258,105.05254-58.69876a6.5656,6.5656,0,0,1,8.06364,1.28758,73.86478,73.86478,0,0,1,5.98732,7.51647c25.36584,36.45527,9.07764,84.0484,8.04753,86.91337-16.27208,45.372-61.11292,62.03035-75.9204,66.39215a6.61709,6.61709,0,0,1-7.21056-2.51083l-.01611-.01611c-.98178-.74041-35.84375-27.28116-27.90889-57.42719C260.26791,143.84861,308.00584,116.63179,325.968,98.92722Z"/></svg>